# xmcd
#
# Track frame offsets: 
#        150
#        54546
#        81397
#        103993
#        132601
#        158468
#        182673
#        199948
#        221055
#        248362
#        266493
#        294488
#
# Disc length: 4286 seconds
#
# Revision: 0
# Processed by: cddbd v1.5.2PL0 Copyright (c) Steve Scherf et al.
# Submitted via: ExactAudioCopy v1.0b3
#
DISCID=b110bc0c
DTITLE=Mr - Everyone Concert 01 [CD 2 of 2)
DYEAR=2010
DGENRE=Pop
TTITLE0=Mr. Tam medley
TTITLE1=Medley: 紅色跑車 - Crystal - 每一句說話
TTITLE2=未卜先知
TTITLE3=Everyone
TTITLE4=想太多
TTITLE5=森林
TTITLE6=如果我是陳奕迅 - 衝口而出
TTITLE7=揸緊中指
TTITLE8=大懶堂
TTITLE9=感動
TTITLE10=最重要
TTITLE11=想太多 (encore version)
EXTD=
EXTT0=
EXTT1=
EXTT2=
EXTT3=
EXTT4=
EXTT5=
EXTT6=
EXTT7=
EXTT8=
EXTT9=
EXTT10=
EXTT11=
PLAYORDER=
